<?xml version="1.0" standalone="no"?><!DOCTYPE svg PUBLIC "-//W3C//DTD SVG 1.1//EN" "http://www.w3.org/Graphics/SVG/1.1/DTD/svg11.dtd"><svg class="icon" width="200px" height="133.33px" viewBox="0 0 1536 1024" version="1.1" xmlns="http://www.w3.org/2000/svg"><path d="M0 0h1536v1024H0V0z" fill="#FF0000" /><path d="M271.36 184.32l30.72 87.04h92.16L317.44 327.68l30.72 87.04-76.8-51.2-76.8 51.2 30.72-87.04-76.8-51.2h92.16l30.72-92.16zM568.32 358.4l10.24 25.6h30.72l-20.48 15.36 10.24 25.6-30.72-15.36-20.48 15.36 10.24-25.6-20.48-15.36h30.72V358.4z m-10.24-128l15.36 25.6 25.6-10.24-15.36 20.48 15.36 20.48-25.6-10.24-15.36 30.72v-30.72l-25.6-10.24 25.6-10.24v-25.6zM450.56 163.84l25.6 10.24 15.36-25.6v30.72l25.6 10.24-20.48 5.12v30.72l-15.36-25.6-30.72 10.24 15.36-25.6-15.36-20.48z m46.08 281.6v30.72l25.6 10.24-25.6 5.12v30.72l-20.48-25.6-25.6 10.24 15.36-20.48-15.36-25.6 25.6 10.24 20.48-25.6z" fill="#FFF100" /></svg>