<?xml version="1.0" standalone="no"?><!DOCTYPE svg PUBLIC "-//W3C//DTD SVG 1.1//EN" "http://www.w3.org/Graphics/SVG/1.1/DTD/svg11.dtd"><svg class="icon" width="200px" height="137.54px" viewBox="0 0 1489 1024" version="1.1" xmlns="http://www.w3.org/2000/svg"><path d="M0 3.094h1484.955V1024H0z" fill="#FFFFFF" /><path d="M0 3.094h1484.955v68.06H0V3.094z m0 136.12h1484.955v68.06H0v-68.06z m0 136.121h1484.955v68.06H0v-68.06z m0 136.121h1484.955v68.06H0v-68.06z m0 136.121h1484.955v68.06H0v-68.06z m0 136.12h1484.955v68.061H0v-68.06zM0 819.82h1484.955v68.06H0v-68.06z m0 136.12h1484.955V1024H0v-68.06z m0 0" fill="#D02F44" /><path d="M0 3.094h649.668v476.423H0z" fill="#46467F" /><path d="M92.81 98.997l-21.656 15.468 9.281-27.843-24.75-18.562H83.53l9.28-27.842 9.282 27.842h27.843l-21.656 18.562 9.28 27.843L92.81 98.997z m151.589 0l-21.656 15.468 9.281-27.843-24.75-18.562h27.844l9.28-27.842 9.282 27.842h27.843l-21.656 18.562 9.281 27.843-24.75-15.468z m154.683 0l-21.656 18.562 9.28-27.843-21.655-18.562h27.843l9.281-27.843 9.281 27.843H439.3l-21.655 18.562 9.28 27.843-27.842-18.562z m151.589 3.094l-24.75 15.468 9.281-30.937-21.655-18.562h27.843l9.28-30.936 9.282 30.936h27.843l-21.656 18.562 9.28 30.937-24.748-15.468z m-399.082 77.341L129.934 194.9l9.28-27.843-24.749-18.562h27.843l9.281-27.842 9.281 27.842h27.843l-21.656 18.562 9.281 27.843-24.749-15.468z m173.245 0l-24.75 15.468 9.282-27.843-21.656-18.562h27.843l9.28-27.842 9.282 27.842h27.843l-21.656 18.562 9.281 27.843-24.75-15.468z m170.15 0l-21.655 18.562 9.281-27.843-21.655-18.562h27.843l6.187-30.936 9.28 27.842h27.844l-21.656 18.562 9.281 27.843-24.75-15.468zM92.81 259.867l-21.656 15.468 9.281-27.843-24.75-18.561H83.53l9.28-27.843 9.282 27.843h27.843l-21.656 18.561 9.28 27.843-24.748-15.468z m151.589 0l-21.656 15.468 9.281-27.843-24.75-18.561h27.844l9.28-27.843 9.282 27.843h27.843l-21.656 18.561 9.281 27.843-24.75-15.468z m154.683 0l-21.656 18.562 9.28-27.843-21.655-18.562h27.843l9.281-27.843 9.281 27.843H439.3l-21.655 18.562 9.28 27.843-27.842-18.562z m151.589 0l-24.75 18.562 9.281-30.937-21.655-18.561h27.843l9.28-30.937 9.282 30.937h27.843l-21.656 18.561 9.28 30.937-24.748-18.562zM92.81 417.644l-21.656 18.561 9.281-27.842L58.779 389.8h27.843l6.188-30.937 9.28 27.843h27.844l-21.656 18.562 9.28 30.936-24.748-18.561z m151.589 0l-21.656 18.561 9.281-27.842L210.37 389.8h27.842l9.281-27.843 9.281 27.843h27.843l-21.655 18.562 6.187 27.842-24.75-18.561z m154.683 0l-24.75 18.561 9.281-27.842-21.655-18.562H389.8l9.28-27.843 9.282 27.843h27.842l-21.655 18.562 9.28 27.842-24.748-18.561z m151.589 3.093L525.92 439.3l9.281-30.936-21.655-18.562h27.843l9.28-30.937 9.282 30.937h27.843l-21.656 18.562 9.28 30.936-24.748-18.562z m-399.082-83.529l-21.655 18.562 9.28-27.843-24.749-18.561h27.843l9.281-27.843 9.281 27.843h27.843l-21.656 18.561 9.281 27.843-24.749-18.562z m173.245 0l-21.656 18.562 9.281-27.843-24.749-18.561h27.843l9.28-27.843 9.282 27.843h27.843l-21.656 18.561 9.281 27.843-24.75-18.562z m170.15 0L473.33 355.77l9.281-27.843-21.655-18.561h27.843l6.187-27.843 9.28 27.843h27.844l-21.656 18.561 9.281 27.843-24.75-18.562z m0 0" fill="#FFFFFF" /></svg>